<svg width="216" height="64" viewBox="0 0 216 64" fill="none" xmlns="http://www.w3.org/2000/svg">
<path d="M36.8355 0L34.8391 0.532153C34.8391 0.532153 24.616 3.20269 17.5755 6.55916C17.5534 6.56892 17.5165 6.54939 17.4969 6.55916C10.5129 9.65932 1.68707 15.4837 1.68707 15.4837L0 16.6286L0.844762 18.5351C0.844762 18.5351 7.37693 33.0863 10.3606 39.5136C10.3704 39.5429 10.4269 39.5624 10.4367 39.5893C11.3674 41.6496 13.0643 42.8042 14.8889 43.7098C15.0903 45.4161 15.8074 47.1127 16.6521 48.6676C18.015 51.1941 19.9035 53.5986 21.8705 55.7614C25.8045 60.0918 30.0062 63.3897 30.0062 63.3897L30.7724 64L31.7694 63.9243C31.7694 63.9243 37.0934 63.4947 42.8201 62.0935C45.6884 61.3978 48.7015 60.4629 51.2628 59.1179C53.8241 57.7753 56.1644 55.9908 57.019 53.169C59.2144 45.8824 64.3861 29.5199 64.3861 29.5199L65 27.5377L63.0796 26.6223C63.0796 26.6223 53.4778 21.8451 45.6613 19.2234C42.4468 12.1199 37.6803 1.82836 37.6803 1.82836L36.8355 0ZM34.149 5.94889C34.8219 7.37936 37.3439 12.7668 39.5221 17.4683C32.5086 15.7986 25.2471 14.8734 25.2471 14.8734L23.1745 14.644L22.5605 16.5529L21.5635 19.6799L13.9656 24.7915L16.7307 28.8339L19.3387 27.0788C17.9094 31.6924 17.0745 34.4313 15.8074 38.5982C15.358 38.2638 15.0314 37.9391 14.8889 37.6071V37.529C11.9776 31.2321 9.08641 24.9259 6.21538 18.6107C7.89509 17.5245 14.0343 13.4259 19.5695 10.9848C25.0457 8.36067 32.155 6.49325 34.149 5.94889ZM26.6296 20.0607C29.2769 20.4342 37.2481 21.54 43.3579 23.4929C49.8336 25.5727 57.1442 29.2147 59.013 30.1326C58.3426 32.2758 55.2533 42.0304 53.0285 49.2779L52.2598 51.719C52.002 52.5587 50.9362 53.7304 48.9618 54.7703C46.985 55.8102 44.2984 56.7232 41.6684 57.3652C36.8847 58.5369 33.0955 58.8127 32.3072 58.8908C31.6442 58.3465 28.8054 56.0592 25.554 52.483C23.7516 50.4984 22.0056 48.2575 20.9496 46.3022C19.8937 44.3469 19.6162 42.8115 19.8765 41.9547C21.8901 35.2906 25.8708 22.492 26.6296 20.0607ZM28.6237 31.8096L27.165 36.4623L36.4525 39.4379L37.9087 34.7071L28.6237 31.8096ZM41.6708 35.7007L40.136 40.3533L49.1902 43.3266L50.725 38.6739L41.6708 35.7007ZM31.6172 41.8766L27.0127 43.556C27.0127 43.556 29.0559 49.1632 34.9176 50.8036V50.8792C34.9668 50.8988 35.0232 50.8597 35.0699 50.8792C40.7966 52.6832 45.7375 49.0484 45.7375 49.0484L42.8987 45.0817C42.8987 45.0817 39.5786 47.2372 36.5286 46.2266H36.4525L36.3739 46.1509C33.0464 45.2819 31.6172 41.8766 31.6172 41.8766Z" fill="#F9F9F9"/>
<path d="M89.0862 52.6012C86.3807 52.6012 83.9758 51.9833 81.8715 50.7474C79.8006 49.4782 78.1807 47.7747 77.0116 45.637C75.8426 43.4659 75.258 41.0443 75.258 38.3722C75.258 35.6333 75.8426 33.2117 77.0116 31.1074C78.2141 29.0031 79.8173 27.3497 81.8214 26.1473C83.8255 24.9114 86.0968 24.2935 88.6353 24.2935C90.6728 24.2935 92.4932 24.6442 94.0965 25.3457C95.6997 26.0471 97.0525 27.0157 98.1547 28.2516C99.257 29.454 100.092 30.8402 100.66 32.4101C101.261 33.9799 101.562 35.65 101.562 37.4203C101.562 37.8545 101.545 38.3054 101.512 38.773C101.478 39.2407 101.411 39.6749 101.311 40.0757H79.7171V35.5665H98.1046L95.3991 37.6207C95.7331 35.984 95.6162 34.531 95.0484 33.2618C94.514 31.9591 93.6789 30.9404 92.5433 30.2056C91.441 29.4373 90.1384 29.0532 88.6353 29.0532C87.1323 29.0532 85.7962 29.4373 84.6271 30.2056C83.4581 30.9404 82.5563 32.0092 81.9216 33.4121C81.287 34.7816 81.0365 36.4516 81.1701 38.4223C81.0031 40.2594 81.2536 41.8627 81.9216 43.2321C82.6231 44.6016 83.5917 45.6704 84.8276 46.4387C86.0968 47.2069 87.5331 47.591 89.1363 47.591C90.773 47.591 92.1592 47.2236 93.2948 46.4888C94.4639 45.7539 95.3824 44.802 96.0504 43.6329L100.66 45.8875C100.125 47.1568 99.2904 48.3091 98.1547 49.3446C97.0525 50.3466 95.7164 51.1483 94.1466 51.7495C92.6101 52.3173 90.9233 52.6012 89.0862 52.6012ZM103.931 52V25.3958H106.937V30.7567L106.185 30.5563C106.786 28.786 107.855 27.3831 109.392 26.3477C110.962 25.3123 112.782 24.7945 114.853 24.7945C116.69 24.7945 118.36 25.212 119.863 26.0471C121.366 26.8821 122.569 28.0512 123.47 29.5542C124.372 31.0239 124.823 32.7107 124.823 34.6146V52H121.817V35.4663C121.817 33.863 121.5 32.4936 120.865 31.3579C120.23 30.1889 119.345 29.3037 118.21 28.7025C117.107 28.0679 115.838 27.7506 114.402 27.7506C112.899 27.7506 111.579 28.1013 110.444 28.8027C109.308 29.5041 108.44 30.4728 107.839 31.7086C107.237 32.9445 106.937 34.364 106.937 35.9673V52H103.931ZM137.562 52.6012C135.091 52.6012 132.92 51.9833 131.049 50.7474C129.179 49.5116 127.809 47.8248 126.941 45.6871L129.546 44.4847C130.381 46.1213 131.5 47.424 132.903 48.3926C134.306 49.3279 135.859 49.7955 137.562 49.7955C139.299 49.7955 140.752 49.378 141.921 48.543C143.124 47.6745 143.725 46.5389 143.725 45.136C143.725 44.2676 143.491 43.5327 143.024 42.9315C142.589 42.3303 142.022 41.846 141.32 41.4785C140.619 41.0777 139.867 40.7771 139.065 40.5767L134.957 39.4244C132.652 38.7897 130.949 37.8545 129.847 36.6186C128.778 35.3828 128.243 33.9298 128.243 32.2598C128.243 30.7567 128.628 29.454 129.396 28.3518C130.164 27.2161 131.199 26.3477 132.502 25.7465C133.805 25.1118 135.241 24.7945 136.811 24.7945C139.015 24.7945 141.019 25.3624 142.823 26.498C144.627 27.6337 145.896 29.1701 146.631 31.1074L143.925 32.36C143.224 30.8569 142.239 29.6878 140.969 28.8528C139.7 27.9844 138.297 27.5501 136.761 27.5501C135.158 27.5501 133.855 27.9844 132.853 28.8528C131.851 29.6878 131.35 30.7567 131.35 32.0593C131.35 32.8944 131.55 33.5958 131.951 34.1636C132.352 34.6981 132.87 35.149 133.504 35.5164C134.172 35.8504 134.857 36.1176 135.558 36.318L140.017 37.6207C142.189 38.2219 143.859 39.1738 145.028 40.4765C146.23 41.7792 146.831 43.3156 146.831 45.0859C146.831 46.5222 146.43 47.8081 145.629 48.9438C144.827 50.0794 143.725 50.9813 142.322 51.6493C140.919 52.2839 139.333 52.6012 137.562 52.6012ZM157.399 52.6012C155.729 52.6012 154.243 52.2839 152.94 51.6493C151.638 51.0147 150.602 50.1295 149.834 48.9939C149.066 47.8582 148.682 46.5556 148.682 45.0859C148.682 43.7832 148.965 42.5641 149.533 41.4284C150.101 40.2928 151.02 39.3242 152.289 38.5225C153.558 37.6875 155.212 37.103 157.249 36.7689L168.021 34.9653V37.771L158.051 39.4244C155.779 39.7918 154.176 40.4765 153.241 41.4785C152.306 42.4806 151.838 43.6496 151.838 44.9857C151.838 46.422 152.372 47.591 153.441 48.4928C154.544 49.3947 155.93 49.8456 157.6 49.8456C159.537 49.8456 161.224 49.4114 162.66 48.543C164.096 47.6411 165.215 46.4721 166.017 45.0358C166.819 43.5661 167.219 41.9629 167.219 40.226V33.6125C167.219 31.8422 166.585 30.406 165.315 29.3037C164.046 28.2015 162.393 27.6504 160.355 27.6504C158.685 27.6504 157.182 28.0679 155.846 28.9029C154.51 29.7379 153.491 30.8235 152.79 32.1595L150.084 30.7066C150.585 29.6377 151.354 28.6524 152.389 27.7506C153.425 26.8487 154.627 26.1306 155.996 25.5962C157.366 25.0617 158.819 24.7945 160.355 24.7945C162.293 24.7945 163.996 25.1786 165.466 25.9469C166.969 26.6817 168.138 27.7172 168.973 29.0532C169.808 30.3559 170.226 31.8756 170.226 33.6125V52H167.219V46.4387L167.57 46.6892C167.136 47.758 166.418 48.7434 165.416 49.6452C164.414 50.5136 163.228 51.2318 161.858 51.7996C160.522 52.334 159.036 52.6012 157.399 52.6012ZM174.496 52V25.3958H177.502V52H174.496ZM174.496 20.1851V14.6739H177.502V20.1851H174.496ZM193.916 52.6012C191.411 52.6012 189.157 52 187.153 50.7975C185.149 49.5617 183.562 47.8916 182.393 45.7873C181.224 43.6496 180.639 41.2614 180.639 38.6227C180.639 35.984 181.207 33.6292 182.343 31.5583C183.478 29.454 185.015 27.8007 186.952 26.5982C188.889 25.3958 191.061 24.7945 193.465 24.7945C195.303 24.7945 196.956 25.1285 198.426 25.7966C199.929 26.4646 201.215 27.3998 202.283 28.6023C203.386 29.7713 204.221 31.1241 204.789 32.6606C205.39 34.1636 205.69 35.7502 205.69 37.4203C205.69 37.7543 205.674 38.105 205.64 38.4724C205.607 38.8398 205.557 39.224 205.49 39.6248H182.393V36.8691H203.787L202.434 37.9213C202.634 35.984 202.35 34.2471 201.582 32.7107C200.814 31.1408 199.712 29.905 198.275 29.0031C196.872 28.0679 195.269 27.6003 193.465 27.6003C191.662 27.6003 190.008 28.0846 188.505 29.0532C187.002 29.9885 185.817 31.2911 184.948 32.9612C184.08 34.5979 183.679 36.5017 183.746 38.6728C183.679 40.8439 184.096 42.7645 184.998 44.4346C185.9 46.1046 187.136 47.424 188.706 48.3926C190.276 49.3279 192.012 49.7955 193.916 49.7955C195.854 49.7955 197.54 49.3446 198.977 48.4427C200.413 47.5075 201.582 46.2717 202.484 44.7352L205.039 46.0879C204.438 47.3238 203.586 48.4427 202.484 49.4448C201.382 50.4134 200.096 51.1817 198.626 51.7495C197.19 52.3173 195.62 52.6012 193.916 52.6012ZM208.852 52V25.3958H211.858V52H208.852ZM208.852 20.1851V14.6739H211.858V20.1851H208.852Z" fill="#F9F9F9"/>
</svg>
